<mxfile host="app.diagrams.net" modified="2023-11-02T11:39:44.655Z" agent="Mozilla/5.0 (Windows NT 10.0; Win64; x64) AppleWebKit/537.36 (KHTML, like Gecko) Chrome/118.0.0.0 Safari/537.36 Edg/118.0.2088.76" version="21.6.2" etag="GKxPZ9dzl6n7Ftvb1Uyz" type="github">
  <diagram name="Page-1" id="pWod7N3kbYFvmYCnop9V">
    <mxGraphModel>
      <root>
        <mxCell id="0" />
        <mxCell id="1" parent="0" />
      </root>
    </mxGraphModel>
  </diagram>
</mxfile>
